<svg xmlns="http://www.w3.org/2000/svg" xmlns:xlink="http://www.w3.org/1999/xlink" width="30" height="30" viewBox="0 0 30 30">
  <defs>
    <clipPath id="clip-path">
      <rect id="Rectangle_1130" data-name="Rectangle 1130" width="30" height="30" transform="translate(518 2014)" fill="#fff" stroke="#707070" stroke-width="1"/>
    </clipPath>
  </defs>
  <g id="Mask_Group_101" data-name="Mask Group 101" transform="translate(-518 -2014)" clip-path="url(#clip-path)">
    <g id="download_3_" data-name="download (3)" transform="translate(516.636 2012.636)">
      <path id="Path_289" data-name="Path 289" d="M16.364,1.364a15,15,0,1,0,15,15,15,15,0,0,0-15-15Zm-6.1,2.816.813.565a1.317,1.317,0,0,1,.424.49l.2.409a1.307,1.307,0,0,0,1.17.723h1.454a1.308,1.308,0,0,1,1.308,1.308V7.7a1.306,1.306,0,0,1-.723,1.17l-3.489,1.745a1.2,1.2,0,0,0-.141.081L9.5,11.887a1.317,1.317,0,0,0-.445.5l-.265.533a1.3,1.3,0,0,0,0,1.169A1.31,1.31,0,0,1,8.545,15.6l-.039.04a1.308,1.308,0,0,1-1.6.2L4.626,14.47a1.31,1.31,0,0,1-.568-.708L3.5,12.078c-.026,0-.044-.008-.068-.009A13.657,13.657,0,0,1,10.266,4.18ZM17.783,21.22a.881.881,0,0,1-.045.279l-.6,1.81a.879.879,0,0,1-.213.345L15.83,24.745a.879.879,0,0,0-.241.451l-.578,2.885a.882.882,0,0,1-.471.614l-.473.237a.886.886,0,0,1-1.019-.166l-.877-.877a.9.9,0,0,1-.166-.23l-.557-1.114a.891.891,0,0,1-.093-.395V23.338a.886.886,0,0,0-.488-.79l-.731-.365a.88.88,0,0,1-.341-.3l-1.15-1.726a.882.882,0,0,1-.149-.49v-.614a.886.886,0,0,1,.488-.79l.677-.341a.878.878,0,0,0,.395-.395l.341-.677a.886.886,0,0,1,.787-.488h1.231a.882.882,0,0,1,.625.258l.2.2a.886.886,0,0,0,.625.259h.183a.886.886,0,0,1,.883.886.886.886,0,0,0,.488.79l1.882.94a.886.886,0,0,1,.488.79ZM21.376,8.26a1.216,1.216,0,0,1,.263-.394l1.221-1.22a1.221,1.221,0,0,1,.314-.227l1.282-.641a1.2,1.2,0,0,1,.355-.106,13.675,13.675,0,0,1,3.578,4.263h-.6a1.213,1.213,0,0,1-.857-.355l-.147-.147a1.214,1.214,0,0,0-.857-.355H25a1.21,1.21,0,0,0-.545.128l-1.2.6a1.212,1.212,0,0,1-.545.128H22.49A1.212,1.212,0,0,1,21.37,8.26Zm5.14,17.185-.089-.218a1.436,1.436,0,0,1-.073-.452V23.2a1.432,1.432,0,0,0-.151-.639l-1.128-2.254a1.432,1.432,0,0,1-.151-.639V19.46a1.428,1.428,0,0,0-2.067-1.278l-.489.245a1.432,1.432,0,0,1-.638.151H21.67a1.432,1.432,0,0,1-1.355-.978L20,16.655a1.432,1.432,0,0,1-.074-.452V15.057a1.428,1.428,0,0,1,.636-1.189l1.3-.867a1.422,1.422,0,0,1,.446-.2l2.213-.554a1.432,1.432,0,0,1,.8.031l1.527.509a1.438,1.438,0,0,0,.453.074H29.53a13.492,13.492,0,0,1-3.014,12.581Z" fill="#fff"/>
    </g>
  </g>
</svg>
