<svg xmlns="http://www.w3.org/2000/svg" xmlns:xlink="http://www.w3.org/1999/xlink" width="30" height="30" viewBox="0 0 30 30">
  <defs>
    <clipPath id="clip-path">
      <rect id="Rectangle_1128" data-name="Rectangle 1128" width="30" height="30" transform="translate(818 2014)" fill="#fff" stroke="#707070" stroke-width="1"/>
    </clipPath>
  </defs>
  <g id="Mask_Group_99" data-name="Mask Group 99" transform="translate(-818 -2014)" clip-path="url(#clip-path)">
    <g id="download_2_" data-name="download (2)" transform="translate(818 2014.001)">
      <path id="Path_282" data-name="Path 282" d="M23.21,14.477h6.614L28.665,8.915a.879.879,0,0,0-.861-.7H17.624Zm0,0" fill="#fff"/>
      <path id="Path_283" data-name="Path 283" d="M12.359,8.216H2.2a.879.879,0,0,0-.861.7L.176,14.477h6.55Zm0,0" fill="#fff"/>
      <path id="Path_284" data-name="Path 284" d="M15,13.18a.879.879,0,1,0,.879.879A.88.88,0,0,0,15,13.18Zm0,0" fill="#fff"/>
      <path id="Path_285" data-name="Path 285" d="M14.088,25.136h1.758V30H14.088Zm0,0" fill="#fff"/>
      <path id="Path_286" data-name="Path 286" d="M22.816,16.235a.878.878,0,0,1-.656-.294L15.879,8.9V4.394h4a.586.586,0,0,0,.5-.886L19.595,2.2l.783-1.31a.586.586,0,0,0-.5-.886H15a.879.879,0,0,0-.879.879V8.886l-6.35,7.058a.879.879,0,0,1-.653.291H0V29.12A.879.879,0,0,0,.879,30H12.33V24.257a.879.879,0,0,1,.879-.879h3.516a.879.879,0,0,1,.879.879V30H29.121A.879.879,0,0,0,30,29.12V16.235ZM5.357,25.429a.879.879,0,0,1-1.758,0V24.257a.879.879,0,0,1,1.758,0Zm0-4.687a.879.879,0,0,1-1.758,0V19.57a.879.879,0,0,1,1.758,0Zm3.516,4.687a.879.879,0,0,1-1.758,0V24.257a.879.879,0,1,1,1.758,0Zm0-4.687a.879.879,0,0,1-1.758,0V19.57a.879.879,0,0,1,1.758,0Zm5.2,0a.879.879,0,0,1-1.758,0V19.57a.879.879,0,0,1,1.758,0Zm-1.714-6.683A2.637,2.637,0,1,1,15,16.7a2.64,2.64,0,0,1-2.637-2.637Zm5.317,6.683a.879.879,0,0,1-1.758,0V19.57a.879.879,0,0,1,1.758,0Zm4.985,4.687a.879.879,0,0,1-1.758,0V24.257a.879.879,0,1,1,1.758,0Zm0-4.687a.879.879,0,0,1-1.758,0V19.57a.879.879,0,1,1,1.758,0Zm3.516,4.687a.879.879,0,0,1-1.758,0V24.257a.879.879,0,1,1,1.758,0Zm0-4.687a.879.879,0,0,1-1.758,0V19.57a.879.879,0,1,1,1.758,0Zm0,0" fill="#fff"/>
    </g>
  </g>
</svg>
