<svg xmlns="http://www.w3.org/2000/svg" xmlns:xlink="http://www.w3.org/1999/xlink" width="14" height="14" viewBox="0 0 14 14">
  <defs>
    <clipPath id="clip-path">
      <rect id="Rectangle_2060" data-name="Rectangle 2060" width="14" height="14" transform="translate(98 528)" fill="#edc339" stroke="#707070" stroke-width="1"/>
    </clipPath>
  </defs>
  <g id="Mask_Group_403" data-name="Mask Group 403" transform="translate(-98 -528)" clip-path="url(#clip-path)">
    <g id="download_11_" data-name="download (11)" transform="translate(98 528)">
      <path id="Path_14065" data-name="Path 14065" d="M7,0a7,7,0,1,0,7,7A7.008,7.008,0,0,0,7,0Zm3.329,10.621a.583.583,0,0,1-.825,0L6.588,7.7a.581.581,0,0,1-.171-.412V3.5a.583.583,0,0,1,1.167,0V7.05L10.329,9.8a.583.583,0,0,1,0,.825Zm0,0" fill="#edc339"/>
    </g>
  </g>
</svg>
