<svg xmlns="http://www.w3.org/2000/svg" xmlns:xlink="http://www.w3.org/1999/xlink" width="14" height="14" viewBox="0 0 14 14">
  <defs>
    <clipPath id="clip-path">
      <rect id="Rectangle_2065" data-name="Rectangle 2065" width="14" height="14" transform="translate(113 4440)" fill="#edc339" stroke="#707070" stroke-width="1"/>
    </clipPath>
  </defs>
  <g id="Mask_Group_405" data-name="Mask Group 405" transform="translate(-113 -4440)" clip-path="url(#clip-path)">
    <g id="download_2_" data-name="download (2)" transform="translate(113 4440.458)">
      <g id="Group_3764" data-name="Group 3764">
        <path id="Path_14067" data-name="Path 14067" d="M12.972,1H11.664V2.305a.436.436,0,1,1-.872,0V1H3.813V2.305a.436.436,0,1,1-.872,0V1H1.632A1.2,1.2,0,0,0,.5,2.305v1.57H14.455V2.305A1.472,1.472,0,0,0,12.972,1ZM.5,4.791v7.981a1.184,1.184,0,0,0,1.178,1.308h11.34A1.472,1.472,0,0,0,14.5,12.773V4.791ZM4.38,12.118H3.333a.344.344,0,0,1-.349-.349v-1.09a.344.344,0,0,1,.349-.349h1.09a.344.344,0,0,1,.349.349v1.09a.382.382,0,0,1-.393.349Zm0-3.925H3.333a.344.344,0,0,1-.349-.349V6.754A.344.344,0,0,1,3.333,6.4h1.09a.344.344,0,0,1,.349.349v1.09a.382.382,0,0,1-.393.349Zm3.489,3.925H6.779a.344.344,0,0,1-.349-.349v-1.09a.344.344,0,0,1,.349-.349h1.09a.344.344,0,0,1,.349.349v1.09A.321.321,0,0,1,7.869,12.118Zm0-3.925H6.779a.344.344,0,0,1-.349-.349V6.754A.344.344,0,0,1,6.779,6.4h1.09a.344.344,0,0,1,.349.349v1.09A.321.321,0,0,1,7.869,8.193Zm3.489,3.925h-1.09a.344.344,0,0,1-.349-.349v-1.09a.344.344,0,0,1,.349-.349h1.09a.344.344,0,0,1,.349.349v1.09A.321.321,0,0,1,11.358,12.118Zm0-3.925h-1.09a.344.344,0,0,1-.349-.349V6.754a.344.344,0,0,1,.349-.349h1.09a.344.344,0,0,1,.349.349v1.09A.321.321,0,0,1,11.358,8.193Z" transform="translate(-0.498 -0.997)" fill="#edc339"/>
      </g>
    </g>
  </g>
</svg>
