<svg id="logo" xmlns="http://www.w3.org/2000/svg" xmlns:xlink="http://www.w3.org/1999/xlink" width="26" height="8" viewBox="0 0 26 8">
  <defs>
    <clipPath id="clip-path">
      <rect id="Rectangle_1046" data-name="Rectangle 1046" width="26" height="8" fill="#edc339"/>
    </clipPath>
  </defs>
  <g id="Mask_Group_68" data-name="Mask Group 68" clip-path="url(#clip-path)">
    <g id="logo_vmms" data-name="logo vmms" transform="translate(0 0.164)">
      <g id="Group_6" data-name="Group 6" transform="translate(0 0)">
        <path id="Path_2" data-name="Path 2" d="M0,2.32H2.135L3.552,4.507s.514-.725,1.029-1.389C4.93,2.67,5.774,1.728,6,1.51,6.58.93,7.143.387,7.6,0h.64A21.286,21.286,0,0,0,6.221,2.441,24.171,24.171,0,0,0,3.542,7.829Z" fill="#edc339"/>
        <path id="Path_3" data-name="Path 3" d="M12.787,11.335v.384h-.495v-.947h5l-.534.575Z" transform="translate(-11.274 -9.668)" fill="#edc339"/>
        <path id="Path_4" data-name="Path 4" d="M12.293,42.029l.495.755v2.157h1.446l.359.551h-2.3Z" transform="translate(-11.274 -37.663)" fill="#edc339"/>
        <path id="Path_5" data-name="Path 5" d="M45.97,24.66l-.194.551h3.057V19.434l-.495.671V24.66Z" transform="translate(-41.981 -17.381)" fill="#edc339"/>
        <path id="Path_6" data-name="Path 6" d="M88.507,10.771h1.446l1.456,1.67,1.456-1.67h1.446V17.5H92.865V13.154l-1.456,1.694-1.446-1.67V17.5H88.507Z" transform="translate(-81.17 -9.668)" fill="#edc339"/>
        <path id="Path_7" data-name="Path 7" d="M167.766,10.771h1.456l1.456,1.67,1.456-1.67h1.436V17.5h-1.446V13.154l-1.456,1.694-1.446-1.67V17.5h-1.456Z" transform="translate(-153.858 -9.668)" fill="#edc339"/>
        <path id="Path_8" data-name="Path 8" d="M248.248,10.783l-.824,1.682h-1.9a.288.288,0,0,0-.233.3.314.314,0,0,0,.069.2.2.2,0,0,0,.164.078h1.573a1.979,1.979,0,0,1,1.184.508,2.461,2.461,0,0,1-.136,3.569,2.352,2.352,0,0,1-1.621.375h-3.008l.738-1.67h2.484c.213.012.815.06.786-.557a.532.532,0,0,0-.582-.557c-.369,0-1.359.012-1.359.012A1.654,1.654,0,0,1,244,13.578a2.182,2.182,0,0,1,.573-2.443c.388-.314.612-.364,1.669-.364C247.113,10.771,248.248,10.783,248.248,10.783Z" transform="translate(-223.325 -9.668)" fill="#edc339"/>
      </g>
      <path id="Path_9" data-name="Path 9" d="M302.417,0a.526.526,0,0,0-.485.549.519.519,0,0,0,.485.549A.526.526,0,0,0,302.9.548.526.526,0,0,0,302.417,0Zm0,.991a.334.334,0,0,1-.269-.121.509.509,0,0,1-.119-.321.42.42,0,0,1,.388-.442.334.334,0,0,1,.269.121.509.509,0,0,1,.119.321A.42.42,0,0,1,302.417.99Z" transform="translate(-276.902 0.002)" fill="#edc339"/>
      <path id="Path_10" data-name="Path 10" d="M305.364,2.79a.164.164,0,0,0,.078-.048.189.189,0,0,0,.039-.191.137.137,0,0,0-.146-.1H305.1l-.01.585h.078V2.8h.107l.146.239h.107Zm-.184-.072V2.551h.136a.08.08,0,0,1,.087.084.078.078,0,0,1-.078.084Z" transform="translate(-279.801 -2.205)" fill="#edc339"/>
    </g>
  </g>
</svg>
