<svg xmlns="http://www.w3.org/2000/svg" xmlns:xlink="http://www.w3.org/1999/xlink" width="21" height="21" viewBox="0 0 21 21">
  <defs>
    <clipPath id="clip-path">
      <rect id="Rectangle_1141" data-name="Rectangle 1141" width="21" height="21" transform="translate(120 3757)" stroke="#707070" stroke-width="1"/>
    </clipPath>
  </defs>
  <g id="Mask_Group_103" data-name="Mask Group 103" transform="translate(-120 -3757)" clip-path="url(#clip-path)">
    <g id="download_2_" data-name="download (2)" transform="translate(120 3758.589)">
      <g id="Group_3078" data-name="Group 3078">
        <g id="Group_3077" data-name="Group 3077">
          <path id="Path_297" data-name="Path 297" d="M5.454,13.235V16.2A9.052,9.052,0,0,0,11.5,18.977c4.447,0,6.048-2.778,6.048-2.778V12.984l-5.221,3.052a1.281,1.281,0,0,1-1.22.039Z" transform="translate(-0.682 -3.213)"/>
          <path id="Path_298" data-name="Path 298" d="M10.951,8.312A2.822,2.822,0,0,1,9.3,7.892L3.02,10.067,10.47,13.8a1.274,1.274,0,0,0,1.214-.04L20.365,8.7a1.276,1.276,0,0,0-.07-2.245L11.3,1.952a1.276,1.276,0,0,0-1.214.039L1.409,7.051A1.276,1.276,0,0,0,1.48,9.3L1.461,13.89a1.156,1.156,0,0,0-.321,2,2.321,2.321,0,0,1-.733,1.417,1.278,1.278,0,0,0,.127,1.974l.159.115a1.27,1.27,0,0,0,1.022.205,1.285,1.285,0,0,0,.836-.622,4.362,4.362,0,0,0,.113-3.19,1.153,1.153,0,0,0-.423-1.9l.018-4.387,6.815-2.36a1.264,1.264,0,0,1,.351-.555c-.022.078.022,1.03,1.463,1.03.828,0,1.5-.264,1.5-.8A.889.889,0,0,0,12.32,6.5a1.494,1.494,0,0,1,.372.876C12.694,8,11.913,8.312,10.951,8.312Z" transform="translate(0 -1.817)"/>
        </g>
      </g>
    </g>
  </g>
</svg>
