<svg xmlns="http://www.w3.org/2000/svg" xmlns:xlink="http://www.w3.org/1999/xlink" width="21" height="21" viewBox="0 0 21 21">
  <defs>
    <clipPath id="clip-path">
      <rect id="Rectangle_1139" data-name="Rectangle 1139" width="21" height="21" transform="translate(122 3671)" stroke="#707070" stroke-width="1"/>
    </clipPath>
  </defs>
  <g id="Mask_Group_102" data-name="Mask Group 102" transform="translate(-122 -3671)" clip-path="url(#clip-path)">
    <g id="download_1_" data-name="download (1)" transform="translate(123.675 3671)">
      <path id="Path_291" data-name="Path 291" d="M4.41,9.605a4.5,4.5,0,1,0,4.5-4.5,4.5,4.5,0,0,0-4.5,4.5Zm4.5.284A1.478,1.478,0,0,1,8.531,6.98V6.6a.312.312,0,1,1,.623,0v.361a1.463,1.463,0,0,1,1.219,1.452.308.308,0,1,1-.616,0,.852.852,0,1,0-.851.853,1.475,1.475,0,0,1,.248,2.928v.371a.312.312,0,0,1-.623,0v-.391A1.492,1.492,0,0,1,7.42,10.743a.315.315,0,0,1,.631,0,.855.855,0,0,0,.762.848.325.325,0,0,1,.049,0,.314.314,0,0,1,.07.008.853.853,0,0,0-.025-1.7Zm0,0" transform="translate(0.204 0.255)"/>
      <path id="Path_292" data-name="Path 292" d="M16.207,15.756l-.007,0-2.893,1.367a2.236,2.236,0,0,1,.04.486.311.311,0,0,1-.311.3h-.009L8.794,17.8a.312.312,0,0,1,.017-.623l3.892.107a1.607,1.607,0,0,0-1.537-1.335L8.59,15.877A3.391,3.391,0,0,1,7.131,15.5l-.262-.136a3.959,3.959,0,0,0-4.041.228l-.1,3.747.443-.237A1.925,1.925,0,0,1,4.6,18.944l4.371,1.227a4.082,4.082,0,0,0,2.5-.28l6.055-3.917a1.133,1.133,0,0,0-1.322-.219Zm0,0" transform="translate(0.12 0.746)"/>
      <path id="Path_293" data-name="Path 293" d="M.015,20.013l.154-5.574,2.2.061-.154,5.574Zm0,0" transform="translate(-0.015 0.722)"/>
      <path id="Path_294" data-name="Path 294" d="M9,3.695V.312a.312.312,0,0,0-.623,0V3.695a.312.312,0,0,0,.623,0Zm0,0" transform="translate(0.403)"/>
      <path id="Path_295" data-name="Path 295" d="M11.544,3.61v-1.6a.312.312,0,1,0-.623,0v1.6a.312.312,0,1,0,.623,0Zm0,0" transform="translate(0.53 0.085)"/>
      <path id="Path_296" data-name="Path 296" d="M6.457,3.61v-1.6a.312.312,0,0,0-.623,0v1.6a.312.312,0,1,0,.623,0Zm0,0" transform="translate(0.276 0.085)"/>
    </g>
  </g>
</svg>
