<svg xmlns="http://www.w3.org/2000/svg" xmlns:xlink="http://www.w3.org/1999/xlink" width="21" height="21" viewBox="0 0 21 21">
  <defs>
    <clipPath id="clip-path">
      <rect id="Rectangle_1143" data-name="Rectangle 1143" width="21" height="21" transform="translate(120 3845)" stroke="#707070" stroke-width="1"/>
    </clipPath>
  </defs>
  <g id="Mask_Group_104" data-name="Mask Group 104" transform="translate(-120 -3845)" clip-path="url(#clip-path)">
    <g id="download_3_" data-name="download (3)" transform="translate(120 3847.029)">
      <g id="Group_3081" data-name="Group 3081">
        <g id="Group_3080" data-name="Group 3080">
          <g id="Group_3079" data-name="Group 3079">
            <path id="Path_299" data-name="Path 299" d="M0,3.472V16.518a1.153,1.153,0,0,0,1.153,1.153H13.985V15.382a3.43,3.43,0,1,1,5.19,0v2.288h.673A1.153,1.153,0,0,0,21,16.518V7.672H17.03a1.385,1.385,0,0,1-1.383-1.383V2.319H1.153A1.153,1.153,0,0,0,0,3.472ZM2.56,5.937H14.074V7.2H2.56Zm0,4.536h9.762v.692H2.56Zm0,2.167H8.317v.692H2.56V12.64Z" transform="translate(0 -2.319)"/>
            <path id="Path_300" data-name="Path 300" d="M18.672,2.427V6.289a.692.692,0,0,0,.692.692h3.97L18.672,2.319Z" transform="translate(-2.334 -2.319)"/>
            <path id="Path_301" data-name="Path 301" d="M20.579,19.624V17.947a3.426,3.426,0,0,1-3.807,0v3.267l1.9-.758,1.9.758v-1.59Z" transform="translate(-2.097 -4.272)"/>
            <path id="Path_302" data-name="Path 302" d="M20.806,15.856a2.739,2.739,0,1,0-.346.407A2.757,2.757,0,0,0,20.806,15.856Z" transform="translate(-1.978 -3.474)"/>
          </g>
        </g>
      </g>
    </g>
  </g>
</svg>
