<svg xmlns="http://www.w3.org/2000/svg" xmlns:xlink="http://www.w3.org/1999/xlink" width="30" height="30" viewBox="0 0 30 30">
  <defs>
    <clipPath id="clip-path">
      <rect id="Rectangle_1125" data-name="Rectangle 1125" width="30" height="30" transform="translate(818 1742)" stroke="#707070" stroke-width="1"/>
    </clipPath>
  </defs>
  <g id="Mask_Group_95" data-name="Mask Group 95" transform="translate(-818 -1742)" clip-path="url(#clip-path)">
    <g id="download_2_" data-name="download (2)" transform="translate(818 1742)">
      <path id="Path_270" data-name="Path 270" d="M2.637,22.969h15a.878.878,0,0,0,.833-1.157L11.44.6a.879.879,0,0,0-.834-.6H2.637A2.64,2.64,0,0,0,0,2.637v17.7a2.64,2.64,0,0,0,2.637,2.637ZM7.09,7.148A4.365,4.365,0,0,1,10.2,8.436.879.879,0,0,1,8.953,9.679,2.612,2.612,0,0,0,7.09,8.906a2.637,2.637,0,1,0,2.475,3.516h-1.6a.879.879,0,0,1,0-1.758h2.637a.878.878,0,0,1,.879.879A4.395,4.395,0,1,1,7.09,7.148Z"/>
      <g id="Group_3065" data-name="Group 3065">
        <path id="Path_271" data-name="Path 271" d="M27.363,7.148H15.468L20.139,21.2a2.665,2.665,0,0,1-.1,1.921L16.919,30H27.363A2.637,2.637,0,0,0,30,27.363V9.785A2.637,2.637,0,0,0,27.363,7.148Zm-.937,8.73h-.1a11.434,11.434,0,0,1-2.265,4.18c.687.8,1.225,1.342,1.234,1.351a.879.879,0,0,1-1.243,1.243c-.036-.036-.5-.506-1.129-1.221-.64.725-1.119,1.2-1.15,1.227A.879.879,0,1,1,20.537,21.4c.38-.373.813-.835,1.252-1.344-.258-.334-.516-.687-.763-1.05a.879.879,0,1,1,1.454-.988c.143.211.292.419.442.622A11.044,11.044,0,0,0,24.5,15.879H19.395a.879.879,0,0,1,0-1.758h2.637v-.879a.879.879,0,1,1,1.758,0v.879h2.637a.879.879,0,0,1,0,1.758Z"/>
      </g>
      <path id="Path_272" data-name="Path 272" d="M12.032,24.727c1.661,5.022,1.524,4.976,2.007,5.195a.878.878,0,0,0,1.163-.438l2.157-4.757Z"/>
    </g>
  </g>
</svg>
